# Blender 5.1.1
# www.blender.org
mtllib pillar.mtl
o Cylinder.001
v 0.000000 2.053959 -1.000000
v 0.000000 4.053959 -1.000000
v 0.707107 2.053959 -0.707107
v 0.707107 4.053959 -0.707107
v 1.000000 2.053959 0.000000
v 1.000000 4.053959 0.000000
v 0.707107 2.053959 0.707107
v 0.707107 4.053959 0.707107
v 0.000000 2.053959 1.000000
v 0.000000 4.053959 1.000000
v -0.707107 2.053959 0.707107
v -0.707107 4.053959 0.707107
v -1.000000 2.053959 0.000000
v -1.000000 4.053959 0.000000
v -0.707107 2.053959 -0.707107
v -0.707107 4.053959 -0.707107
v 0.000000 4.976782 -1.369368
v -0.968289 4.976782 -0.968289
v -1.369368 4.976782 0.000000
v -0.968289 4.976782 0.968289
v 0.000000 4.976782 1.369368
v 0.968289 4.976782 0.968289
v 1.369368 4.976782 0.000000
v 0.968289 4.976782 -0.968289
vn 0.3827 -0.0000 -0.9239
vn 0.9239 -0.0000 -0.3827
vn 0.9239 -0.0000 0.3827
vn 0.3827 -0.0000 0.9239
vn -0.3827 -0.0000 0.9239
vn -0.9239 -0.0000 0.3827
vn -0.0000 1.0000 -0.0000
vn -0.9239 -0.0000 -0.3827
vn -0.3827 -0.0000 -0.9239
vn -0.0000 -1.0000 -0.0000
vn -0.8665 -0.3468 -0.3589
vn -0.3589 -0.3468 -0.8665
vn 0.3589 -0.3468 -0.8665
vn 0.8665 -0.3468 -0.3589
vn 0.8665 -0.3468 0.3589
vn 0.3589 -0.3468 0.8665
vn -0.3589 -0.3468 0.8665
vn -0.8665 -0.3468 0.3589
vt 1.000000 0.500000
vt 1.000000 1.000000
vt 0.875000 1.000000
vt 0.875000 0.500000
vt 0.750000 1.000000
vt 0.750000 0.500000
vt 0.625000 1.000000
vt 0.625000 0.500000
vt 0.500000 1.000000
vt 0.500000 0.500000
vt 0.375000 1.000000
vt 0.375000 0.500000
vt 0.250000 1.000000
vt 0.250000 0.500000
vt 0.000000 0.000000
vt 0.125000 1.000000
vt 0.125000 0.500000
vt 0.000000 1.000000
vt 0.000000 0.500000
vt 0.750000 0.490000
vt 0.919706 0.419706
vt 0.990000 0.250000
vt 0.919706 0.080294
vt 0.750000 0.010000
vt 0.580294 0.080294
vt 0.510000 0.250000
vt 0.580294 0.419706
vt 0.080294 0.419706
vt 0.010000 0.250000
s 0
f 1/1/1 2/2/1 4/3/1 3/4/1
f 3/4/2 4/3/2 6/5/2 5/6/2
f 5/6/3 6/5/3 8/7/3 7/8/3
f 7/8/4 8/7/4 10/9/4 9/10/4
f 9/10/5 10/9/5 12/11/5 11/12/5
f 11/12/6 12/11/6 14/13/6 13/14/6
f 18/15/7 19/15/7 20/15/7 21/15/7 22/15/7 23/15/7 24/15/7 17/15/7
f 13/14/8 14/13/8 16/16/8 15/17/8
f 15/17/9 16/16/9 2/18/9 1/19/9
f 1/20/10 3/21/10 5/22/10 7/23/10 9/24/10 11/25/10 13/26/10 15/27/10
f 19/15/11 18/15/11 16/28/11 14/29/11
f 17/15/12 2/15/12 16/15/12 18/15/12
f 24/15/13 4/15/13 2/15/13 17/15/13
f 23/15/14 6/15/14 4/15/14 24/15/14
f 22/15/15 8/15/15 6/15/15 23/15/15
f 21/15/16 10/15/16 8/15/16 22/15/16
f 20/15/17 12/15/17 10/15/17 21/15/17
f 19/15/18 14/15/18 12/15/18 20/15/18
