# Blender 5.1.2
# www.blender.org
mtllib chair.mtl
o Cube
v 1.000000 1.442173 -1.000000
v 1.000000 3.442173 1.000000
v 1.000000 1.442173 1.000000
v -1.000000 1.442173 -1.000000
v -1.000000 3.442173 1.000000
v -1.000000 1.442173 1.000000
v -1.000000 1.442173 0.815573
v 1.000000 3.442173 0.815573
v -1.000000 3.442173 0.815573
v 1.000000 1.442173 0.815573
v 1.000000 1.442173 -0.762833
v -1.000000 1.442173 -0.762833
v -0.700000 1.442173 -1.000000
v -0.700000 3.442173 1.000000
v -0.700000 1.442173 1.000000
v -0.700000 1.442173 0.815573
v -0.700000 3.442173 0.815573
v -0.700000 1.442173 -0.762833
v 0.722466 1.442173 1.000000
v 0.722466 3.442173 0.815573
v 0.722466 1.442173 -1.000000
v 0.722466 3.442173 1.000000
v 0.722466 1.442173 0.815573
v 0.722466 1.442173 -0.762833
v -1.000000 -0.013659 0.815573
v -1.000000 -0.013659 1.000000
v -0.700000 -0.013659 0.815573
v -0.700000 -0.013659 1.000000
v -0.700000 0.016904 -1.000000
v -1.000000 0.016904 -1.000000
v -1.000000 0.016904 -0.762833
v -0.700000 0.016904 -0.762833
v 0.722466 -0.024424 1.000000
v 1.000000 -0.024424 1.000000
v 1.000000 -0.024424 0.815573
v 0.722466 -0.024424 0.815573
v 1.000000 -0.035529 -0.762833
v 1.000000 -0.035529 -1.000000
v 0.722466 -0.035529 -1.000000
v 0.722466 -0.035529 -0.762833
v -1.000000 1.739083 -0.762833
v -1.000000 1.739083 -1.000000
v 0.722466 1.739083 -1.000000
v 1.000000 1.739083 -1.000000
v 1.000000 1.739083 -0.762833
v 1.000000 1.739083 0.815573
v 0.722466 1.739083 0.815573
v -1.000000 1.739083 0.815573
v -0.700000 1.739083 -1.000000
v -0.700000 1.739083 0.815573
vn -0.0000 -0.0000 1.0000
vn -1.0000 -0.0000 -0.0000
vn -0.0000 1.0000 -0.0000
vn -0.0000 -1.0000 -0.0000
vn 1.0000 -0.0000 -0.0000
vn -0.0000 -0.0000 -1.0000
vt 0.590005 0.105838
vt 0.610177 0.106087
vt 0.602888 0.113082
vt 0.602042 0.113177
vt 0.640823 0.451921
vt 0.637924 0.474313
vt 0.631400 0.463713
vt 0.631394 0.463359
vt 0.113036 0.429111
vt 0.134621 0.448708
vt 0.134056 0.510362
vt 0.111099 0.530181
vt 0.966812 0.452449
vt 0.964661 0.473424
vt 0.952018 0.463444
vt 0.952013 0.463100
vt 0.009913 0.529828
vt 0.124526 0.566911
vt 0.000115 0.538746
vt 0.375000 0.962500
vt 0.375000 1.000000
vt 0.117907 0.508928
vt 0.126155 0.508868
vt 0.121433 0.507925
vt 0.122121 0.450077
vt 0.126510 0.449889
vt 0.118004 0.448922
vt 0.992082 0.014830
vt 0.976202 0.008580
vt 0.973923 0.000115
vt 0.999885 0.010599
vt 0.918339 0.120200
vt 0.909645 0.096023
vt 0.962075 0.126295
vt 0.977097 0.129182
vt 0.950983 0.463490
vt 0.950836 0.463057
vt 0.935372 0.447626
vt 0.942320 0.474313
vt 0.603069 0.113140
vt 0.602037 0.113187
vt 0.618203 0.127159
vt 0.588816 0.124544
vt 0.630865 0.463656
vt 0.630711 0.463435
vt 0.625226 0.466797
vt 0.615551 0.455769
vt 0.466714 0.859047
vt 0.168057 0.561539
vt 0.168762 0.394524
vt 0.128195 0.393029
vt 0.452254 0.136594
vt 0.588586 0.000115
vt 0.587199 0.262044
vt 0.568435 0.688957
vt 0.588586 0.843116
vt 0.011992 0.425444
vt 0.002567 0.416127
s 0
usemtl Material
f 3/1/1 19/2/1 33/3/1 34/4/1
f 24/5/2 21/6/2 39/7/2 40/8/2
f 3/9/1 2/10/1 5/11/1 6/12/1
f 12/13/2 4/14/2 30/15/2 31/16/2
f 4/17/2 6/12/2 48/18/2 42/19/2
f 15/20/1 6/21/1 26/21/1 28/20/1
f 17/22/3 9/23/3 5/11/3 14/24/3 22/25/3 2/10/3 8/26/3 20/27/3
f 25/28/4 27/29/4 28/30/4 26/31/4
f 16/32/5 15/33/5 28/30/5 27/29/5
f 7/34/6 16/32/6 27/29/6 25/28/6
f 6/35/2 7/34/2 25/28/2 26/31/2
f 30/15/4 29/36/4 32/37/4 31/16/4
f 18/38/1 12/13/1 31/16/1 32/37/1
f 13/39/5 18/38/5 32/37/5 29/36/5
f 4/14/6 13/39/6 29/36/6 30/15/6
f 36/40/4 35/41/4 34/4/4 33/3/4
f 23/42/6 10/43/6 35/41/6 36/40/6
f 10/43/5 3/1/5 34/4/5 35/41/5
f 19/2/2 23/42/2 36/40/2 33/3/2
f 39/7/4 38/44/4 37/45/4 40/8/4
f 21/6/6 1/46/6 38/44/6 39/7/6
f 1/46/5 11/47/5 37/45/5 38/44/5
f 11/47/1 24/5/1 40/8/1 37/45/1
f 41/48/3 48/18/3 50/49/3 47/50/3 46/51/3 45/52/3 44/53/3 43/54/3 49/55/3 42/56/3
f 24/5/4 11/47/4 10/43/4 23/42/4 19/2/4 15/33/4 16/32/4 7/34/4 12/13/4 18/38/4 13/39/4 21/6/4
f 5/11/2 9/23/2 48/18/2 6/12/2
f 1/57/6 4/17/6 42/19/6 44/58/6
f 3/9/5 1/57/5 44/58/5 46/51/5
f 8/26/5 2/10/5 3/9/5 46/51/5
f 20/27/6 8/26/6 46/51/6 47/50/6 50/49/6 48/18/6 9/23/6 17/22/6
